<?xml version="1.0" standalone="no"?>
<!DOCTYPE svg PUBLIC "-//W3C//DTD SVG 20010904//EN"
 "http://www.w3.org/TR/2001/REC-SVG-20010904/DTD/svg10.dtd">
<svg version="1.0" xmlns="http://www.w3.org/2000/svg"
 width="112.000000pt" height="112.000000pt" viewBox="0 0 112.000000 112.000000"
 preserveAspectRatio="xMidYMid meet">

<g transform="translate(0.000000,112.000000) scale(0.100000,-0.100000)"
fill="#000000" stroke="none">
<path d="M305 963 c-30 -7 -73 -52 -80 -84 -9 -41 3 -85 31 -119 l25 -29 -39
-20 c-38 -19 -132 -114 -132 -132 0 -5 12 -3 28 5 15 7 42 17 61 21 41 9 51
-3 51 -61 0 -49 -31 -100 -79 -129 -104 -62 -117 -114 -51 -200 64 -83 114
-118 177 -123 48 -4 53 -7 53 -28 0 -35 23 -29 39 8 22 50 20 52 -44 50 -70
-3 -115 8 -161 40 -70 48 -97 151 -52 203 27 30 174 85 229 85 47 0 162 -35
214 -65 22 -13 68 -52 103 -88 58 -61 62 -68 62 -111 l0 -46 -52 -1 c-87 -2
-99 -8 -134 -77 l-32 -62 38 2 c37 1 39 3 45 39 10 57 32 72 107 68 l63 -4 -3
35 c-5 56 6 80 38 92 17 5 30 14 30 19 0 18 -30 21 -55 5 -24 -16 -24 -16 -30
22 -16 107 -152 271 -270 327 -90 42 -199 45 -301 9 -37 -14 29 47 79 72 55
28 59 46 20 87 -54 55 -29 157 38 157 15 0 35 -3 44 -6 20 -8 45 -56 45 -88 0
-35 9 -37 70 -19 46 13 64 14 119 4 79 -15 153 -49 208 -96 23 -19 43 -35 46
-35 2 0 10 14 17 30 41 99 154 69 179 -48 23 -110 -33 -198 -114 -178 -32 8
-32 -7 -1 -82 13 -31 29 -83 35 -114 12 -57 33 -89 46 -68 5 8 -38 162 -61
218 -4 8 3 12 19 12 64 0 127 111 111 197 -25 138 -131 198 -211 118 l-34 -34
-47 33 c-93 66 -236 98 -324 73 -23 -6 -28 -4 -28 10 0 32 -40 84 -75 99 -19
8 -36 13 -37 13 -2 -1 -12 -3 -23 -6z"/>
<path d="M288 899 c-22 -12 -23 -52 -2 -73 18 -19 20 -19 44 -6 35 19 43 47
20 70 -22 22 -36 24 -62 9z"/>
<path d="M920 703 c-29 -37 -24 -83 12 -102 25 -14 29 -14 55 5 37 27 42 68
12 100 -29 31 -53 30 -79 -3z"/>
</g>
</svg>
